<?xml version="1.0" standalone="no"?>
<!DOCTYPE svg PUBLIC "-//W3C//DTD SVG 20010904//EN"
 "http://www.w3.org/TR/2001/REC-SVG-20010904/DTD/svg10.dtd">
<svg version="1.0" xmlns="http://www.w3.org/2000/svg"
 width="772.000000pt" height="772.000000pt" viewBox="0 0 772.000000 772.000000"
 preserveAspectRatio="xMidYMid meet">
<metadata>
Created by potrace 1.14, written by Peter Selinger 2001-2017
</metadata>
<g transform="translate(0.000000,772.000000) scale(0.100000,-0.100000)"
fill="#000000" stroke="none">
<path d="M6225 6836 c26 -59 41 -110 50 -171 3 -23 7 -52 10 -65 7 -36 7 -190
0 -224 -10 -48 -40 -129 -63 -165 -14 -24 -29 -35 -49 -37 -46 -5 -81 -65 -99
-169 -3 -16 -7 -40 -9 -52 -6 -35 -14 -43 -44 -43 -40 0 -55 -23 -54 -85 0
-48 -2 -54 -23 -59 -21 -6 -23 -10 -18 -47 4 -23 13 -57 21 -76 l14 -35 -29 3
c-49 6 -63 -15 -58 -80 3 -31 10 -71 15 -88 5 -18 7 -33 4 -33 -3 0 1 -8 8
-17 10 -12 10 -14 1 -9 -14 8 -46 66 -36 66 4 0 2 6 -4 13 -6 6 -27 62 -47
122 -20 61 -40 114 -44 118 -4 4 -19 3 -33 -2 -24 -9 -28 -6 -61 47 -20 31
-57 83 -82 115 -45 56 -47 58 -66 41 -20 -18 -14 -23 -111 89 -15 16 -20 17
-33 7 -12 -10 -26 -2 -85 53 -93 86 -114 80 -150 -40 -7 -24 -15 -43 -18 -43
-2 0 -23 13 -46 28 -63 42 -103 57 -120 43 -11 -9 -25 -5 -65 19 -29 16 -59
30 -67 30 -8 0 -22 -16 -31 -35 -19 -40 -15 -40 -132 6 -40 16 -77 29 -82 29
-5 0 -19 -10 -30 -21 -19 -19 -25 -20 -61 -10 -21 7 -59 23 -84 36 -44 24 -45
24 -63 4 -17 -19 -20 -19 -67 -3 -27 9 -61 23 -76 30 -36 18 -41 18 -35 -5 4
-17 2 -18 -42 -6 -58 15 -259 12 -289 -4 -23 -12 -20 -36 3 -27 7 2 16 2 19
-2 4 -3 13 -7 21 -8 31 -5 92 -28 131 -50 33 -20 40 -29 37 -47 -3 -16 0 -24
10 -24 25 0 107 -34 107 -44 0 -5 -4 -9 -10 -9 -19 0 -10 -27 21 -58 17 -18
35 -32 39 -32 4 0 20 -11 36 -25 l29 -25 -22 -21 c-26 -26 -22 -37 53 -155
l52 -81 -24 -28 c-13 -16 -24 -31 -24 -35 0 -19 68 -93 101 -111 21 -11 21
-13 6 -24 -9 -7 -17 -15 -17 -19 0 -3 20 -26 45 -52 25 -25 45 -48 45 -52 0
-4 -13 -15 -29 -25 -30 -18 -83 -79 -94 -108 -7 -21 11 -39 91 -90 55 -35 61
-42 52 -60 -14 -26 -7 -35 49 -63 44 -23 47 -26 43 -59 -3 -29 1 -37 25 -54
34 -24 113 -57 172 -73 32 -8 41 -14 32 -23 -6 -6 -11 -20 -11 -31 0 -19 7
-21 74 -22 45 -1 84 -8 102 -18 l29 -15 -40 1 c-77 1 -243 -35 -257 -56 -4 -6
1 -25 12 -43 l19 -32 -37 -12 c-20 -6 -49 -18 -65 -26 -23 -11 -26 -17 -17
-33 8 -15 6 -20 -13 -25 -12 -4 -42 -16 -67 -28 -25 -11 -48 -20 -52 -19 -11
3 -26 -31 -22 -51 1 -11 0 -17 -2 -14 -8 8 -169 -40 -167 -49 1 -5 4 -16 8
-25 5 -13 -3 -17 -37 -22 -24 -4 -60 -11 -81 -17 -32 -10 -37 -14 -31 -32 5
-16 3 -20 -9 -15 -8 3 -18 3 -21 -1 -4 -3 -17 -7 -29 -9 -36 -5 -188 -83 -182
-93 4 -6 2 -10 -4 -10 -17 0 -71 -61 -71 -81 0 -23 3 -23 41 -3 36 18 81 25
172 28 69 2 99 -5 78 -18 -6 -4 -11 -16 -11 -27 0 -16 4 -19 20 -14 12 4 48 8
80 10 l60 3 -6 -38 -6 -39 57 1 c31 1 60 -3 63 -8 4 -6 33 -16 64 -23 56 -12
57 -13 56 -45 -1 -18 2 -38 6 -45 8 -12 51 -12 71 -1 6 4 16 5 23 4 6 -1 17
-2 22 -3 6 0 10 -10 10 -20 0 -17 6 -19 51 -15 28 2 55 6 59 9 4 2 7 -20 7
-50 -1 -30 2 -57 5 -61 3 -3 56 -6 117 -7 l111 -2 0 -28 c0 -16 4 -26 10 -22
17 11 160 17 160 7 0 -6 -7 -12 -15 -16 -22 -8 -18 -34 5 -41 17 -5 18 -10 8
-28 -6 -12 -18 -28 -26 -36 -13 -13 -11 -18 13 -37 17 -13 23 -24 16 -28 -12
-8 -50 -89 -57 -121 -2 -11 -1 -28 2 -37 5 -15 8 -15 39 3 18 11 51 21 72 23
49 4 113 24 136 44 15 14 17 13 18 -4 1 -10 1 -25 0 -32 -2 -13 93 18 113 38
7 7 19 2 38 -17 17 -16 39 -26 57 -26 31 0 149 65 164 90 5 7 12 11 17 8 4 -3
11 3 14 12 6 14 11 12 35 -11 20 -20 35 -26 49 -22 51 17 211 139 212 163 0 4
7 16 15 26 13 18 15 18 48 -9 20 -15 42 -29 51 -30 15 -2 66 59 66 78 0 4 5
19 12 35 6 15 12 30 13 33 1 3 6 20 10 38 8 32 46 72 70 72 13 0 27 35 18 44
-3 3 -7 47 -9 98 -2 51 -6 104 -9 118 -2 14 -7 39 -11 55 -9 47 -45 148 -62
174 l-16 24 33 -18 c35 -17 251 -229 251 -245 0 -5 6 -15 13 -22 7 -7 24 -29
37 -48 13 -19 27 -37 30 -40 19 -16 107 -162 160 -267 34 -68 65 -125 70 -128
15 -9 48 13 55 36 4 11 7 43 7 71 -1 51 -21 88 -48 88 -17 0 -67 51 -107 110
-17 25 -35 50 -39 55 -5 6 -33 42 -64 80 -108 135 -210 233 -326 313 -37 26
-68 50 -68 54 0 4 25 -4 55 -18 69 -30 197 -64 250 -65 51 -2 124 7 155 19 14
5 27 10 30 10 12 1 50 15 110 41 59 24 65 29 65 56 0 28 28 55 57 55 8 0 51
28 89 59 9 7 14 22 12 32 -4 14 2 21 23 29 53 19 79 35 99 60 25 31 25 35 -1
90 l-22 45 24 40 c37 63 69 175 65 223 -1 6 -13 12 -27 12 -25 0 -25 1 -12 23
8 12 25 46 37 76 l23 54 -23 17 -22 18 21 27 c23 29 36 71 46 140 9 67 15 86
31 111 14 21 14 25 1 30 -8 3 -32 -3 -53 -14 -21 -12 -55 -28 -75 -36 -174
-73 -169 -71 -179 -55 -5 8 -10 18 -12 22 -1 5 -25 -4 -54 -18 -28 -15 -69
-29 -91 -32 l-40 -5 34 98 c39 116 40 128 14 147 -14 10 -18 21 -14 43 3 16 7
51 7 77 1 42 -2 50 -23 60 -17 9 -26 22 -27 42 -1 17 -4 48 -7 70 -3 22 -8 60
-11 84 -4 25 -9 49 -12 54 -5 9 -97 2 -114 -9 -5 -2 -11 8 -15 23 -23 104 -29
123 -54 173 -4 8 -21 16 -38 18 -40 4 -46 17 -66 122 -9 46 -18 85 -20 88 -3
2 -8 -13 -12 -34 -5 -22 -9 -42 -10 -46 -1 -5 -2 -18 -3 -30 -3 -51 -15 -1
-18 74 -2 71 -7 114 -18 163 -3 10 -27 95 -30 105 -31 90 -141 300 -157 300
-5 0 -8 6 -8 14 0 16 -42 46 -64 46 -12 0 -10 -10 9 -54z"/>
<path d="M3240 5171 c0 -12 -54 -30 -115 -37 -74 -9 -74 -9 -81 -17 -4 -4 -14
-7 -23 -7 -9 0 -29 -7 -45 -15 -36 -19 -35 -19 -32 9 l3 24 -51 -15 c-28 -8
-58 -17 -66 -20 -33 -13 -51 -12 -70 5 -11 9 -30 19 -43 22 -24 6 -127 -27
-139 -45 -4 -5 -8 -7 -8 -3 0 4 -29 -8 -64 -27 -57 -31 -65 -33 -77 -19 -30
36 -56 35 -147 -4 -95 -41 -172 -89 -199 -126 l-18 -24 -38 30 c-21 17 -49 31
-62 31 -32 0 -81 -54 -125 -137 -32 -60 -39 -67 -82 -82 l-47 -15 -7 -57 c-3
-31 -8 -66 -11 -77 -13 -66 -2 -260 18 -312 5 -13 6 -23 3 -23 -3 0 2 -10 10
-22 53 -75 -37 -9 -134 98 -32 35 -130 170 -130 178 0 2 -25 47 -55 100 -66
117 -100 196 -145 338 -19 59 -40 110 -47 112 -44 17 -82 -37 -86 -123 -1 -33
3 -44 23 -58 44 -30 74 -69 110 -139 34 -70 127 -225 139 -234 3 -3 22 -27 41
-55 61 -88 112 -141 219 -230 45 -37 81 -72 81 -78 0 -8 -3 -9 -8 -1 -7 11
-113 62 -172 83 -19 7 -44 17 -55 21 -46 19 -115 32 -171 32 -90 2 -164 -5
-170 -14 -3 -5 -9 -6 -14 -3 -16 10 -174 -33 -187 -51 -8 -11 -9 -20 -4 -24
16 -9 -6 -34 -34 -37 -34 -5 -134 -49 -156 -69 -10 -9 -15 -22 -13 -29 6 -14
-5 -18 -66 -30 -43 -9 -91 -33 -107 -54 -14 -17 -11 -53 6 -111 6 -19 11 -36
11 -37 0 -1 -14 -17 -30 -35 -51 -55 -139 -253 -122 -270 5 -5 19 -10 31 -11
24 -1 27 -10 8 -29 -26 -27 -97 -148 -87 -148 6 0 9 -4 6 -8 -3 -5 4 -16 15
-25 19 -17 19 -17 -9 -44 -34 -34 -45 -57 -72 -153 -25 -89 -50 -150 -62 -150
-4 0 -8 -9 -8 -20 0 -27 23 -26 103 5 36 13 76 27 89 29 13 3 56 15 96 26 80
24 102 21 102 -10 0 -24 18 -26 46 -5 10 8 28 15 40 15 11 0 24 3 28 7 10 11
64 18 104 14 16 -1 15 -16 -1 -33 -7 -7 -22 -36 -32 -63 -10 -28 -22 -54 -25
-60 -4 -5 -15 -32 -24 -60 -17 -50 -17 -50 7 -70 19 -17 22 -26 15 -55 -4 -19
-10 -63 -13 -98 -4 -61 -4 -64 23 -75 22 -10 27 -19 28 -47 4 -121 16 -244 27
-261 10 -17 20 -19 62 -16 28 2 58 7 68 12 23 10 31 1 32 -38 1 -18 5 -43 9
-57 39 -140 61 -174 108 -168 24 4 32 0 42 -21 12 -22 40 -124 52 -184 9 -48
15 -56 40 -51 26 5 30 -1 37 -56 7 -51 57 -201 79 -232 10 -14 18 -30 18 -34
0 -11 83 -142 120 -189 49 -63 93 -117 115 -138 22 -22 76 -47 86 -41 10 6 -1
44 -12 44 -5 0 -9 5 -9 11 0 6 -13 29 -28 52 -26 39 -59 120 -78 192 -4 17 -8
32 -9 35 -22 78 -34 242 -22 300 20 99 73 212 101 216 86 12 116 76 145 305 1
8 48 22 88 27 18 3 30 52 26 105 -3 43 -1 48 22 57 14 5 26 17 27 27 0 10 2
25 3 33 1 8 -3 21 -8 27 -5 7 -7 13 -3 13 3 0 -1 16 -9 36 -20 49 -20 51 20
51 20 0 43 7 52 16 19 19 19 86 -1 183 -8 38 -13 70 -12 72 5 5 54 -103 67
-149 16 -54 14 -51 22 -69 3 -8 13 -42 22 -75 23 -80 28 -85 73 -73 26 7 37 7
40 -1 5 -16 84 -133 102 -151 8 -9 28 -31 44 -50 28 -34 29 -34 57 -18 l28 17
62 -65 c59 -60 64 -63 81 -47 20 18 15 20 85 -42 39 -35 49 -43 79 -58 27 -14
32 -14 51 1 19 15 53 94 53 125 1 37 17 37 85 2 76 -39 97 -42 115 -20 11 13
17 13 49 -4 86 -46 106 -47 126 -6 8 18 15 38 15 45 0 8 9 10 28 5 15 -4 34
-8 42 -10 8 -2 45 -11 82 -21 l66 -18 28 31 c22 26 31 30 51 22 12 -4 23 -7
23 -4 0 2 27 -7 60 -20 l60 -24 16 24 c17 26 27 26 123 -4 59 -18 61 -18 66 0
5 15 16 19 56 19 51 0 172 23 222 42 15 6 27 17 27 24 0 8 -11 14 -27 15 -37
1 -60 5 -108 20 -54 17 -76 37 -71 65 4 20 0 24 -20 24 -14 0 -40 7 -60 15
-32 13 -34 16 -23 37 11 20 7 26 -42 70 -30 26 -60 48 -66 48 -18 0 -16 11 7
40 11 14 20 32 20 40 0 9 -25 60 -56 114 l-56 98 20 21 c11 12 24 34 27 49 6
23 0 34 -44 76 -28 27 -51 53 -51 56 0 4 6 14 14 21 12 12 7 21 -32 61 l-47
46 32 28 c44 40 123 138 123 154 0 15 -45 51 -107 86 -37 21 -40 25 -31 46 16
34 5 50 -44 66 -33 12 -42 19 -39 34 12 60 8 68 -49 96 -30 14 -57 25 -60 23
-3 -1 -16 2 -30 8 -28 11 -47 16 -72 19 -18 2 -24 19 -11 32 4 3 8 15 10 25 2
16 -2 18 -30 12 -52 -11 -181 2 -192 19 -3 5 2 7 11 6 9 -1 42 2 73 7 31 5 65
10 76 12 11 1 27 5 35 8 8 3 39 13 69 22 29 10 62 26 72 36 18 18 18 21 3 44
-16 24 -12 45 7 45 17 0 103 42 112 54 4 6 5 19 3 29 -2 9 0 17 6 17 5 0 47
19 94 42 69 33 86 46 90 68 5 22 17 30 92 55 97 34 117 48 103 74 -7 12 -6 18
2 19 33 2 146 40 164 54 6 5 10 15 7 23 -4 9 13 18 53 30 32 9 66 24 76 32 9
9 17 13 17 9 0 -4 13 2 29 13 16 12 32 21 35 21 3 0 22 11 42 25 20 14 33 25
29 25 -4 0 5 10 21 22 40 31 72 68 77 90 5 16 3 17 -9 7 -8 -6 -14 -8 -14 -4
0 5 -8 1 -18 -8 -30 -27 -104 -50 -202 -63 -25 -3 -54 -8 -65 -11 -19 -5 -19
-5 -2 14 19 22 24 58 5 47 -12 -7 -66 -20 -125 -29 -37 -6 -39 0 -18 41 18 35
14 39 -23 26 -28 -10 -75 -9 -122 2 -14 3 -42 7 -62 8 l-37 1 6 44 6 45 -35
-6 c-19 -3 -47 -10 -62 -16 -39 -14 -46 -13 -46 11 0 22 -15 22 -107 3 l-33
-6 13 38 c20 58 13 73 -31 68 -20 -2 -71 -5 -112 -8 -41 -2 -84 -8 -94 -12
-16 -6 -18 -4 -14 20 l6 28 -52 -6 c-28 -4 -70 -9 -93 -12 -48 -6 -55 5 -20
29 l22 15 -29 11 -28 11 36 35 36 34 -25 13 -25 13 25 27 c61 66 97 148 65
148 -5 0 -10 -4 -10 -9z"/>
</g>
</svg>
